<?xml version="1.0" standalone="no"?>
<!DOCTYPE svg PUBLIC "-//W3C//DTD SVG 20010904//EN"
 "http://www.w3.org/TR/2001/REC-SVG-20010904/DTD/svg10.dtd">
<svg version="1.0" xmlns="http://www.w3.org/2000/svg"
 width="1024.000000pt" height="1024.000000pt" viewBox="111 107 802 802"
 preserveAspectRatio="xMidYMid meet">

<g transform="translate(0.000000,1024.000000) scale(0.100000,-0.100000)"
fill="#000000" stroke="none">
<path d="M0 5120 l0 -5120 5120 0 5120 0 0 5120 0 5120 -5120 0 -5120 0 0
-5120z m5475 3946 c251 -37 462 -91 685 -172 151 -56 444 -205 575 -292 131
-87 305 -227 330 -266 42 -64 18 -143 -52 -172 -53 -23 -92 -11 -159 48 -142
124 -316 239 -513 338 -297 148 -527 221 -881 276 -179 29 -575 26 -775 -4
-332 -50 -679 -163 -934 -305 -374 -207 -723 -541 -956 -918 -70 -112 -172
-323 -211 -434 -16 -44 -38 -90 -50 -102 -52 -52 -152 -34 -180 32 -18 45 -13
80 33 205 120 326 358 684 642 967 453 452 1026 721 1706 802 50 6 104 13 120
15 74 10 516 -3 620 -18z m17 -495 c534 -86 1003 -323 1397 -706 394 -383 633
-837 746 -1418 83 -426 107 -497 199 -596 29 -31 136 -91 163 -91 7 0 28 -14
48 -31 31 -27 35 -37 35 -79 0 -39 -5 -54 -30 -80 -29 -31 -33 -32 -93 -28
-131 9 -308 139 -390 288 -46 85 -91 229 -122 393 -90 469 -164 686 -331 968
-114 191 -222 329 -378 484 -369 367 -797 584 -1306 662 -138 21 -485 24 -627
5 -577 -77 -1043 -317 -1389 -718 -139 -161 -256 -340 -336 -514 -203 -441
-367 -660 -626 -834 -63 -42 -120 -61 -157 -52 -57 14 -97 93 -76 149 5 13 53
57 106 97 127 96 237 207 312 316 33 49 117 204 186 345 171 347 299 539 501
748 181 187 387 338 621 454 280 139 559 217 935 261 19 2 136 3 260 1 165 -3
259 -9 352 -24z m-120 -477 c634 -82 1183 -446 1517 -1006 109 -183 216 -462
266 -698 66 -309 77 -353 106 -442 94 -281 262 -486 503 -614 125 -66 211 -93
389 -119 24 -4 52 -19 75 -40 32 -29 37 -39 36 -77 -1 -59 -26 -102 -71 -123
-43 -21 -67 -22 -713 -33 l-395 -7 -44 -33 c-60 -43 -117 -45 -163 -3 -33 29
-33 31 -36 129 -5 143 23 192 109 192 36 0 62 -13 107 -51 l33 -29 261 0 262
0 -96 65 c-190 130 -342 321 -439 553 -46 110 -75 214 -124 442 -43 200 -87
356 -130 471 -178 464 -540 849 -983 1044 -398 175 -823 208 -1247 96 -297
-79 -559 -234 -780 -462 -155 -160 -235 -285 -349 -544 -196 -445 -433 -741
-766 -957 -167 -109 -413 -214 -474 -202 -81 15 -120 98 -81 170 15 28 32 39
99 65 344 132 605 343 810 654 62 93 115 194 229 435 157 330 305 527 533 708
221 176 541 327 824 387 208 45 514 57 732 29z m-7 -489 c341 -62 616 -204
855 -444 107 -107 219 -260 281 -383 64 -127 132 -322 190 -543 76 -290 102
-380 141 -478 36 -92 35 -145 -6 -186 -33 -32 -92 -35 -133 -5 -61 43 -122
205 -217 569 -69 266 -112 390 -187 535 -75 145 -134 223 -253 337 -187 179
-423 303 -686 359 -121 26 -421 26 -540 1 -244 -53 -460 -164 -633 -326 -119
-112 -210 -252 -292 -451 -84 -203 -229 -460 -353 -628 -204 -273 -512 -542
-829 -722 -51 -29 -93 -53 -93 -54 0 -1 112 -3 249 -4 267 -3 281 -1 344 50
20 16 42 23 73 23 36 0 49 -6 76 -33 l33 -32 0 -111 0 -111 -37 -34 c-47 -42
-90 -45 -139 -9 -19 13 -44 32 -56 40 -19 15 -87 17 -557 22 -604 7 -584 4
-607 82 -25 83 17 138 126 165 38 9 119 38 180 63 443 181 857 518 1122 913
83 124 141 234 243 457 111 243 191 371 313 499 244 258 550 406 937 454 104
12 347 4 455 -15z m-196 -520 c16 -8 36 -30 45 -49 15 -32 16 -184 14 -1865
l-3 -1831 -27 -26 c-50 -51 -151 -31 -185 37 -10 19 -13 419 -13 1844 0 1803
0 1820 20 1853 31 51 93 66 149 37z m-485 -545 c14 -5 35 -24 46 -42 20 -33
20 -48 18 -1371 l-3 -1339 -33 -29 c-21 -19 -43 -29 -63 -29 -40 0 -96 27
-112 54 -17 29 -24 2632 -7 2689 18 62 88 93 154 67z m991 -203 c31 -31 33
-38 40 -127 3 -52 5 -565 3 -1140 -3 -993 -4 -1047 -21 -1074 -48 -73 -174
-66 -206 12 -8 19 -11 345 -9 1165 l3 1139 33 29 c26 23 42 29 78 29 39 0 51
-5 79 -33z m-1439 -401 l34 -34 -2 -777 -3 -777 -33 -29 c-26 -23 -42 -29 -78
-29 -39 0 -51 5 -80 34 l-34 34 0 761 c0 823 -2 798 52 835 12 9 42 16 66 16
37 0 50 -6 78 -34z m1917 -137 c15 -11 31 -37 37 -57 8 -25 10 -236 8 -664
l-3 -628 -28 -27 c-23 -24 -36 -28 -82 -28 -46 0 -59 4 -82 28 l-28 27 -3 641
c-3 694 -3 691 51 717 38 18 102 14 130 -9z m-2405 -225 c49 -32 52 -55 52
-462 0 -209 -3 -393 -6 -411 -8 -38 -46 -78 -83 -86 -39 -8 -101 15 -125 48
-21 28 -21 38 -21 442 0 404 0 414 21 442 38 51 107 62 162 27z m2846 -94 c14
-5 35 -24 46 -42 20 -32 20 -47 18 -361 l-3 -329 -33 -29 c-45 -41 -111 -41
-152 -1 -25 26 -29 37 -35 123 -12 155 -1 559 15 592 24 49 86 69 144 47z
m-3574 -727 c55 -50 50 -140 -9 -182 -79 -56 -652 -231 -756 -231 -29 0 -45 8
-71 34 -29 29 -34 41 -34 79 0 69 31 100 122 122 150 36 367 99 498 145 74 26
142 50 150 53 36 13 71 6 100 -20z m3910 -148 c41 -21 60 -53 60 -101 0 -36
-10 -56 -66 -134 -124 -172 -200 -347 -309 -708 -94 -311 -185 -496 -351 -717
-292 -389 -707 -641 -1333 -810 -98 -26 -165 -52 -250 -96 -399 -206 -748
-365 -907 -411 -63 -19 -76 -20 -104 -8 -41 17 -70 64 -70 112 0 63 35 91 195
152 190 73 348 145 561 256 327 171 361 186 465 214 339 90 480 140 654 231
318 168 564 402 733 695 72 126 127 259 182 446 103 350 182 537 304 723 104
159 160 195 236 156z m845 -73 c161 -54 189 -67 214 -98 30 -38 36 -69 22
-115 -13 -43 -58 -79 -99 -79 -12 0 -62 15 -110 34 -186 73 -278 84 -359 45
-65 -31 -148 -130 -198 -234 -55 -116 -84 -204 -146 -439 -62 -241 -118 -412
-179 -548 -252 -567 -758 -1035 -1390 -1286 -129 -52 -191 -72 -440 -142 -150
-43 -232 -80 -446 -201 -66 -37 -164 -89 -217 -115 -110 -53 -149 -54 -198 -5
-36 37 -45 73 -28 118 13 32 28 44 124 95 61 33 187 101 280 153 197 109 290
147 510 210 357 104 600 215 850 390 238 167 416 344 556 553 169 253 237 416
345 826 91 346 157 512 259 648 172 230 363 285 650 190z m-4249 -116 c59 -59
44 -135 -35 -185 -160 -102 -659 -284 -986 -359 -197 -46 -223 -46 -271 2 -40
40 -46 92 -15 142 22 36 42 44 186 74 253 53 698 205 897 306 129 65 175 69
224 20z m458 -276 c59 -22 85 -123 46 -173 -60 -77 -536 -311 -875 -432 -241
-86 -649 -195 -727 -195 -67 0 -118 77 -104 154 10 50 42 70 153 95 268 60
593 161 823 255 123 51 376 173 528 256 97 52 114 56 156 40z m3695 -187 c93
-99 186 -214 211 -264 22 -42 26 -99 10 -130 -13 -24 -61 -49 -95 -49 -42 0
-76 27 -122 93 -23 34 -85 108 -136 164 -102 110 -116 141 -93 197 19 46 52
66 106 66 43 0 48 -3 119 -77z m-1578 -101 c51 -45 51 -96 0 -223 -176 -439
-521 -761 -996 -931 -60 -22 -193 -60 -295 -84 -189 -46 -251 -71 -415 -167
-76 -44 -344 -175 -465 -227 -116 -49 -393 -149 -519 -186 -149 -44 -183 -44
-227 0 -29 29 -34 41 -34 81 0 58 35 98 101 115 91 24 375 121 524 180 171 68
484 219 627 304 123 72 165 87 353 131 185 43 355 100 464 154 188 95 377 250
491 404 67 90 157 260 189 358 29 90 60 117 133 118 28 1 46 -6 69 -27z
m-1930 -188 c31 -16 59 -66 59 -106 0 -46 -36 -82 -141 -144 -238 -141 -563
-287 -848 -383 -193 -64 -539 -151 -604 -151 -42 0 -54 5 -83 34 -38 38 -45
85 -20 135 19 36 39 44 208 85 241 58 471 132 680 217 124 51 395 179 498 236
188 104 196 106 251 77z m3275 -181 c59 -38 56 -115 -11 -323 -129 -395 -290
-687 -538 -976 -342 -397 -798 -698 -1329 -879 -146 -49 -332 -95 -388 -95
-89 0 -143 68 -117 147 14 43 66 78 132 89 22 3 108 26 190 49 345 100 691
277 984 503 129 99 365 340 463 472 186 251 317 520 408 837 21 74 47 144 57
155 39 44 100 53 149 21z m-2952 -200 c37 -17 66 -63 66 -103 0 -53 -39 -88
-203 -187 -422 -252 -766 -397 -1281 -538 -156 -42 -212 -45 -249 -11 -36 33
-50 90 -32 132 18 43 49 62 142 86 167 42 501 150 678 220 139 55 477 222 620
309 205 122 200 121 259 92z m3152 -375 c36 -17 57 -65 51 -113 -12 -86 -198
-491 -239 -519 -49 -35 -147 -6 -168 50 -17 45 -11 71 40 172 27 54 74 158
104 231 30 73 63 142 73 153 37 42 87 51 139 26z"/>
</g>
</svg>
